<mxfile host="app.diagrams.net" modified="2022-08-29T19:40:48.049Z" agent="5.0 (Windows NT 10.0; Win64; x64) AppleWebKit/537.36 (KHTML, like Gecko) Chrome/104.0.0.0 Safari/537.36" etag="i-wCevB0FE6YIlYQtpVT" version="20.2.7" type="github">
  <diagram id="TNB255DIsFlSPM-mUOdt" name="PÃ¡gina-1">
    <mxGraphModel dx="1385" dy="1732" grid="1" gridSize="10" guides="1" tooltips="1" connect="1" arrows="1" fold="1" page="1" pageScale="1" pageWidth="827" pageHeight="1169" math="0" shadow="0">
      <root>
        <mxCell id="0" />
        <mxCell id="1" parent="0" />
        <mxCell id="1XUGT96_4kWBRoZJdjzS-4" value="" style="edgeStyle=orthogonalEdgeStyle;rounded=0;orthogonalLoop=1;jettySize=auto;html=1;startArrow=none;strokeWidth=2;" edge="1" parent="1" source="1XUGT96_4kWBRoZJdjzS-12" target="1XUGT96_4kWBRoZJdjzS-2">
          <mxGeometry relative="1" as="geometry" />
        </mxCell>
        <mxCell id="1XUGT96_4kWBRoZJdjzS-1" value="INICIO" style="ellipse;whiteSpace=wrap;html=1;" vertex="1" parent="1">
          <mxGeometry x="146.5" y="-1120" width="120" height="80" as="geometry" />
        </mxCell>
        <mxCell id="1XUGT96_4kWBRoZJdjzS-5" value="" style="edgeStyle=orthogonalEdgeStyle;rounded=0;orthogonalLoop=1;jettySize=auto;html=1;strokeWidth=2;" edge="1" parent="1" source="1XUGT96_4kWBRoZJdjzS-2" target="1XUGT96_4kWBRoZJdjzS-3">
          <mxGeometry relative="1" as="geometry" />
        </mxCell>
        <mxCell id="1XUGT96_4kWBRoZJdjzS-41" value="" style="edgeStyle=orthogonalEdgeStyle;rounded=0;orthogonalLoop=1;jettySize=auto;html=1;fontSize=14;strokeWidth=2;" edge="1" parent="1" source="1XUGT96_4kWBRoZJdjzS-2" target="1XUGT96_4kWBRoZJdjzS-40">
          <mxGeometry relative="1" as="geometry">
            <Array as="points">
              <mxPoint x="420" y="-880" />
              <mxPoint x="420" y="-320" />
              <mxPoint x="207" y="-320" />
            </Array>
          </mxGeometry>
        </mxCell>
        <mxCell id="1XUGT96_4kWBRoZJdjzS-2" value="CONTADOR&amp;lt;11" style="rhombus;whiteSpace=wrap;html=1;strokeWidth=2;" vertex="1" parent="1">
          <mxGeometry x="146.5" y="-920" width="120" height="80" as="geometry" />
        </mxCell>
        <mxCell id="1XUGT96_4kWBRoZJdjzS-7" value="" style="edgeStyle=orthogonalEdgeStyle;rounded=0;orthogonalLoop=1;jettySize=auto;html=1;strokeWidth=2;" edge="1" parent="1" source="1XUGT96_4kWBRoZJdjzS-3" target="1XUGT96_4kWBRoZJdjzS-6">
          <mxGeometry relative="1" as="geometry" />
        </mxCell>
        <mxCell id="1XUGT96_4kWBRoZJdjzS-3" value="VERDE= HIGH" style="shape=parallelogram;perimeter=parallelogramPerimeter;whiteSpace=wrap;html=1;fixedSize=1;strokeWidth=2;" vertex="1" parent="1">
          <mxGeometry x="146.5" y="-810" width="120" height="60" as="geometry" />
        </mxCell>
        <mxCell id="1XUGT96_4kWBRoZJdjzS-10" value="" style="edgeStyle=orthogonalEdgeStyle;rounded=0;orthogonalLoop=1;jettySize=auto;html=1;strokeWidth=2;" edge="1" parent="1" source="1XUGT96_4kWBRoZJdjzS-6" target="1XUGT96_4kWBRoZJdjzS-9">
          <mxGeometry relative="1" as="geometry" />
        </mxCell>
        <mxCell id="1XUGT96_4kWBRoZJdjzS-6" value="T_PASO = 250;&lt;br&gt;DELAY(500)" style="rounded=1;whiteSpace=wrap;html=1;strokeWidth=2;" vertex="1" parent="1">
          <mxGeometry x="146.5" y="-700" width="120" height="60" as="geometry" />
        </mxCell>
        <mxCell id="1XUGT96_4kWBRoZJdjzS-13" value="" style="edgeStyle=orthogonalEdgeStyle;rounded=0;orthogonalLoop=1;jettySize=auto;html=1;strokeWidth=2;" edge="1" parent="1" source="1XUGT96_4kWBRoZJdjzS-8" target="1XUGT96_4kWBRoZJdjzS-12">
          <mxGeometry relative="1" as="geometry">
            <Array as="points">
              <mxPoint x="207" y="-340" />
              <mxPoint x="70" y="-340" />
              <mxPoint x="70" y="-950" />
            </Array>
          </mxGeometry>
        </mxCell>
        <mxCell id="1XUGT96_4kWBRoZJdjzS-8" value="MOTOR_DERECHA(T_PASO)" style="shape=process;whiteSpace=wrap;html=1;backgroundOutline=1;strokeWidth=2;" vertex="1" parent="1">
          <mxGeometry x="89" y="-500" width="235" height="100" as="geometry" />
        </mxCell>
        <mxCell id="1XUGT96_4kWBRoZJdjzS-11" value="" style="edgeStyle=orthogonalEdgeStyle;rounded=0;orthogonalLoop=1;jettySize=auto;html=1;strokeWidth=2;" edge="1" parent="1" source="1XUGT96_4kWBRoZJdjzS-9" target="1XUGT96_4kWBRoZJdjzS-8">
          <mxGeometry relative="1" as="geometry" />
        </mxCell>
        <mxCell id="1XUGT96_4kWBRoZJdjzS-9" value="DISPLAY(A)" style="shape=process;whiteSpace=wrap;html=1;backgroundOutline=1;strokeWidth=2;" vertex="1" parent="1">
          <mxGeometry x="146.5" y="-590" width="120" height="60" as="geometry" />
        </mxCell>
        <mxCell id="1XUGT96_4kWBRoZJdjzS-26" value="" style="edgeStyle=orthogonalEdgeStyle;rounded=0;orthogonalLoop=1;jettySize=auto;html=1;fontSize=14;strokeWidth=2;" edge="1" parent="1" source="1XUGT96_4kWBRoZJdjzS-14" target="1XUGT96_4kWBRoZJdjzS-20">
          <mxGeometry relative="1" as="geometry" />
        </mxCell>
        <mxCell id="1XUGT96_4kWBRoZJdjzS-48" value="" style="edgeStyle=orthogonalEdgeStyle;rounded=0;orthogonalLoop=1;jettySize=auto;html=1;fontSize=14;strokeWidth=2;entryX=0.5;entryY=0;entryDx=0;entryDy=0;" edge="1" parent="1" source="1XUGT96_4kWBRoZJdjzS-14" target="1XUGT96_4kWBRoZJdjzS-42">
          <mxGeometry relative="1" as="geometry">
            <mxPoint x="630" y="-1080" as="targetPoint" />
            <Array as="points">
              <mxPoint x="490" y="-240" />
              <mxPoint x="490" y="-1110" />
              <mxPoint x="630" y="-1110" />
            </Array>
          </mxGeometry>
        </mxCell>
        <mxCell id="1XUGT96_4kWBRoZJdjzS-14" value="&lt;font style=&quot;font-size: 14px;&quot;&gt;CONTADOR&amp;lt;4&lt;/font&gt;" style="rhombus;whiteSpace=wrap;html=1;strokeWidth=2;" vertex="1" parent="1">
          <mxGeometry x="120.25" y="-290" width="172.5" height="100" as="geometry" />
        </mxCell>
        <mxCell id="1XUGT96_4kWBRoZJdjzS-27" value="" style="edgeStyle=orthogonalEdgeStyle;rounded=0;orthogonalLoop=1;jettySize=auto;html=1;fontSize=14;strokeWidth=2;" edge="1" parent="1" source="1XUGT96_4kWBRoZJdjzS-20" target="1XUGT96_4kWBRoZJdjzS-21">
          <mxGeometry relative="1" as="geometry" />
        </mxCell>
        <mxCell id="1XUGT96_4kWBRoZJdjzS-20" value="VERDE=HIGH" style="shape=parallelogram;perimeter=parallelogramPerimeter;whiteSpace=wrap;html=1;fixedSize=1;fontSize=14;strokeWidth=2;" vertex="1" parent="1">
          <mxGeometry x="146.5" y="-150" width="120" height="60" as="geometry" />
        </mxCell>
        <mxCell id="1XUGT96_4kWBRoZJdjzS-28" value="" style="edgeStyle=orthogonalEdgeStyle;rounded=0;orthogonalLoop=1;jettySize=auto;html=1;fontSize=14;strokeWidth=2;" edge="1" parent="1" source="1XUGT96_4kWBRoZJdjzS-21" target="1XUGT96_4kWBRoZJdjzS-24">
          <mxGeometry relative="1" as="geometry" />
        </mxCell>
        <mxCell id="1XUGT96_4kWBRoZJdjzS-21" value="PARO=0&lt;br&gt;T_PASO(250);&lt;br&gt;" style="rounded=1;whiteSpace=wrap;html=1;fontSize=14;strokeWidth=2;" vertex="1" parent="1">
          <mxGeometry x="146.5" y="-50" width="120" height="60" as="geometry" />
        </mxCell>
        <mxCell id="1XUGT96_4kWBRoZJdjzS-12" value="" style="shape=waypoint;sketch=0;size=6;pointerEvents=1;points=[];fillColor=default;resizable=0;rotatable=0;perimeter=centerPerimeter;snapToPoint=1;strokeWidth=2;" vertex="1" parent="1">
          <mxGeometry x="186.5" y="-970" width="40" height="40" as="geometry" />
        </mxCell>
        <mxCell id="1XUGT96_4kWBRoZJdjzS-23" value="" style="edgeStyle=orthogonalEdgeStyle;rounded=0;orthogonalLoop=1;jettySize=auto;html=1;endArrow=none;strokeWidth=2;" edge="1" parent="1" source="1XUGT96_4kWBRoZJdjzS-1" target="1XUGT96_4kWBRoZJdjzS-12">
          <mxGeometry relative="1" as="geometry">
            <mxPoint x="206.5" y="-970.0000000000001" as="sourcePoint" />
            <mxPoint x="206.5" y="-920.0000000000001" as="targetPoint" />
          </mxGeometry>
        </mxCell>
        <mxCell id="1XUGT96_4kWBRoZJdjzS-30" value="" style="edgeStyle=orthogonalEdgeStyle;rounded=0;orthogonalLoop=1;jettySize=auto;html=1;fontSize=14;strokeWidth=2;" edge="1" parent="1" source="1XUGT96_4kWBRoZJdjzS-24" target="1XUGT96_4kWBRoZJdjzS-25">
          <mxGeometry relative="1" as="geometry" />
        </mxCell>
        <mxCell id="1XUGT96_4kWBRoZJdjzS-24" value="DISPAY(PARO);" style="shape=process;whiteSpace=wrap;html=1;backgroundOutline=1;fontSize=14;strokeWidth=2;" vertex="1" parent="1">
          <mxGeometry x="146.5" y="70" width="120" height="60" as="geometry" />
        </mxCell>
        <mxCell id="1XUGT96_4kWBRoZJdjzS-32" value="" style="edgeStyle=orthogonalEdgeStyle;rounded=0;orthogonalLoop=1;jettySize=auto;html=1;fontSize=14;strokeWidth=2;" edge="1" parent="1" source="1XUGT96_4kWBRoZJdjzS-25" target="1XUGT96_4kWBRoZJdjzS-31">
          <mxGeometry relative="1" as="geometry" />
        </mxCell>
        <mxCell id="1XUGT96_4kWBRoZJdjzS-25" value="MOTOR_DERECHA(PARO)" style="shape=process;whiteSpace=wrap;html=1;backgroundOutline=1;fontSize=14;strokeWidth=2;" vertex="1" parent="1">
          <mxGeometry x="64.75" y="180" width="283.5" height="70" as="geometry" />
        </mxCell>
        <mxCell id="1XUGT96_4kWBRoZJdjzS-35" value="" style="edgeStyle=orthogonalEdgeStyle;rounded=0;orthogonalLoop=1;jettySize=auto;html=1;fontSize=14;strokeWidth=2;" edge="1" parent="1" source="1XUGT96_4kWBRoZJdjzS-31" target="1XUGT96_4kWBRoZJdjzS-33">
          <mxGeometry relative="1" as="geometry" />
        </mxCell>
        <mxCell id="1XUGT96_4kWBRoZJdjzS-31" value="DELAY(300)" style="rounded=1;whiteSpace=wrap;html=1;fontSize=14;strokeWidth=2;" vertex="1" parent="1">
          <mxGeometry x="146.5" y="320" width="120" height="60" as="geometry" />
        </mxCell>
        <mxCell id="1XUGT96_4kWBRoZJdjzS-37" value="" style="edgeStyle=orthogonalEdgeStyle;rounded=0;orthogonalLoop=1;jettySize=auto;html=1;fontSize=14;strokeWidth=2;" edge="1" parent="1" source="1XUGT96_4kWBRoZJdjzS-33" target="1XUGT96_4kWBRoZJdjzS-36">
          <mxGeometry relative="1" as="geometry" />
        </mxCell>
        <mxCell id="1XUGT96_4kWBRoZJdjzS-33" value="VERDE = LOW" style="shape=parallelogram;perimeter=parallelogramPerimeter;whiteSpace=wrap;html=1;fixedSize=1;fontSize=14;strokeWidth=2;" vertex="1" parent="1">
          <mxGeometry x="146.5" y="430" width="120" height="60" as="geometry" />
        </mxCell>
        <mxCell id="1XUGT96_4kWBRoZJdjzS-39" value="" style="edgeStyle=orthogonalEdgeStyle;rounded=0;orthogonalLoop=1;jettySize=auto;html=1;fontSize=14;entryX=0;entryY=0.5;entryDx=0;entryDy=0;strokeWidth=2;" edge="1" parent="1" source="1XUGT96_4kWBRoZJdjzS-36" target="1XUGT96_4kWBRoZJdjzS-14">
          <mxGeometry relative="1" as="geometry">
            <mxPoint x="40" y="-240" as="targetPoint" />
            <Array as="points">
              <mxPoint x="207" y="640" />
              <mxPoint x="40" y="640" />
              <mxPoint x="40" y="-240" />
            </Array>
          </mxGeometry>
        </mxCell>
        <mxCell id="1XUGT96_4kWBRoZJdjzS-36" value="DELAY(500)" style="rounded=1;whiteSpace=wrap;html=1;fontSize=14;strokeWidth=2;" vertex="1" parent="1">
          <mxGeometry x="146.5" y="540" width="120" height="60" as="geometry" />
        </mxCell>
        <mxCell id="1XUGT96_4kWBRoZJdjzS-38" value="" style="shape=waypoint;sketch=0;size=6;pointerEvents=1;points=[];fillColor=default;resizable=0;rotatable=0;perimeter=centerPerimeter;snapToPoint=1;fontSize=14;rounded=1;strokeWidth=2;" vertex="1" parent="1">
          <mxGeometry x="49" y="680" width="40" height="40" as="geometry" />
        </mxCell>
        <mxCell id="1XUGT96_4kWBRoZJdjzS-40" value="" style="shape=waypoint;sketch=0;size=6;pointerEvents=1;points=[];fillColor=default;resizable=0;rotatable=0;perimeter=centerPerimeter;snapToPoint=1;strokeWidth=2;" vertex="1" parent="1">
          <mxGeometry x="186.5" y="-310" width="40" height="40" as="geometry" />
        </mxCell>
        <mxCell id="1XUGT96_4kWBRoZJdjzS-50" value="" style="edgeStyle=orthogonalEdgeStyle;rounded=0;orthogonalLoop=1;jettySize=auto;html=1;fontSize=14;strokeWidth=2;" edge="1" parent="1" source="1XUGT96_4kWBRoZJdjzS-42" target="1XUGT96_4kWBRoZJdjzS-43">
          <mxGeometry relative="1" as="geometry" />
        </mxCell>
        <mxCell id="1XUGT96_4kWBRoZJdjzS-55" value="" style="edgeStyle=orthogonalEdgeStyle;rounded=0;orthogonalLoop=1;jettySize=auto;html=1;fontSize=14;strokeWidth=2;" edge="1" parent="1" source="1XUGT96_4kWBRoZJdjzS-42" target="1XUGT96_4kWBRoZJdjzS-54">
          <mxGeometry relative="1" as="geometry">
            <mxPoint x="770" y="-700" as="targetPoint" />
            <Array as="points">
              <mxPoint x="760" y="-1020" />
              <mxPoint x="760" y="-547.75" />
            </Array>
          </mxGeometry>
        </mxCell>
        <mxCell id="1XUGT96_4kWBRoZJdjzS-42" value="CONTADOR&amp;lt;6" style="rhombus;whiteSpace=wrap;html=1;fontSize=14;strokeWidth=2;" vertex="1" parent="1">
          <mxGeometry x="550" y="-1070" width="160" height="100" as="geometry" />
        </mxCell>
        <mxCell id="1XUGT96_4kWBRoZJdjzS-51" value="" style="edgeStyle=orthogonalEdgeStyle;rounded=0;orthogonalLoop=1;jettySize=auto;html=1;fontSize=14;strokeWidth=2;" edge="1" parent="1" source="1XUGT96_4kWBRoZJdjzS-43" target="1XUGT96_4kWBRoZJdjzS-44">
          <mxGeometry relative="1" as="geometry" />
        </mxCell>
        <mxCell id="1XUGT96_4kWBRoZJdjzS-43" value="AMARILLO = HIGH" style="shape=parallelogram;perimeter=parallelogramPerimeter;whiteSpace=wrap;html=1;fixedSize=1;fontSize=14;strokeWidth=2;" vertex="1" parent="1">
          <mxGeometry x="550" y="-920" width="160" height="60" as="geometry" />
        </mxCell>
        <mxCell id="1XUGT96_4kWBRoZJdjzS-52" value="" style="edgeStyle=orthogonalEdgeStyle;rounded=0;orthogonalLoop=1;jettySize=auto;html=1;fontSize=14;strokeWidth=2;" edge="1" parent="1" source="1XUGT96_4kWBRoZJdjzS-44" target="1XUGT96_4kWBRoZJdjzS-46">
          <mxGeometry relative="1" as="geometry" />
        </mxCell>
        <mxCell id="1XUGT96_4kWBRoZJdjzS-44" value="DISPLAY(CONTADOR)" style="shape=process;whiteSpace=wrap;html=1;backgroundOutline=1;fontSize=14;strokeWidth=2;" vertex="1" parent="1">
          <mxGeometry x="530" y="-800" width="200" height="60" as="geometry" />
        </mxCell>
        <mxCell id="1XUGT96_4kWBRoZJdjzS-57" value="" style="edgeStyle=orthogonalEdgeStyle;rounded=0;orthogonalLoop=1;jettySize=auto;html=1;fontSize=14;strokeWidth=2;" edge="1" parent="1" source="1XUGT96_4kWBRoZJdjzS-46" target="1XUGT96_4kWBRoZJdjzS-56">
          <mxGeometry relative="1" as="geometry">
            <Array as="points">
              <mxPoint x="520" y="-660" />
              <mxPoint x="520" y="-1020" />
            </Array>
          </mxGeometry>
        </mxCell>
        <mxCell id="1XUGT96_4kWBRoZJdjzS-46" value="DELAY(1000)" style="rounded=1;whiteSpace=wrap;html=1;fontSize=14;strokeWidth=2;" vertex="1" parent="1">
          <mxGeometry x="570" y="-690" width="120" height="60" as="geometry" />
        </mxCell>
        <mxCell id="1XUGT96_4kWBRoZJdjzS-47" value="" style="shape=waypoint;sketch=0;size=6;pointerEvents=1;points=[];fillColor=default;resizable=0;rotatable=0;perimeter=centerPerimeter;snapToPoint=1;strokeWidth=2;" vertex="1" parent="1">
          <mxGeometry x="530" y="-1040" width="40" height="40" as="geometry" />
        </mxCell>
        <mxCell id="1XUGT96_4kWBRoZJdjzS-59" value="" style="edgeStyle=orthogonalEdgeStyle;rounded=0;orthogonalLoop=1;jettySize=auto;html=1;fontSize=14;strokeWidth=2;" edge="1" parent="1" source="1XUGT96_4kWBRoZJdjzS-49" target="1XUGT96_4kWBRoZJdjzS-58">
          <mxGeometry relative="1" as="geometry" />
        </mxCell>
        <mxCell id="1XUGT96_4kWBRoZJdjzS-49" value="AMARILLO= HIGH" style="shape=parallelogram;perimeter=parallelogramPerimeter;whiteSpace=wrap;html=1;fixedSize=1;fontSize=14;strokeWidth=2;" vertex="1" parent="1">
          <mxGeometry x="570" y="-590" width="150" height="80" as="geometry" />
        </mxCell>
        <mxCell id="1XUGT96_4kWBRoZJdjzS-54" value="" style="shape=waypoint;sketch=0;size=6;pointerEvents=1;points=[];fillColor=default;resizable=0;rotatable=0;perimeter=centerPerimeter;snapToPoint=1;fontSize=14;strokeWidth=2;" vertex="1" parent="1">
          <mxGeometry x="690" y="-567.75" width="40" height="40" as="geometry" />
        </mxCell>
        <mxCell id="1XUGT96_4kWBRoZJdjzS-56" value="" style="shape=waypoint;sketch=0;size=6;pointerEvents=1;points=[];fillColor=default;resizable=0;rotatable=0;perimeter=centerPerimeter;snapToPoint=1;fontSize=14;rounded=1;strokeWidth=2;" vertex="1" parent="1">
          <mxGeometry x="530" y="-1040" width="40" height="40" as="geometry" />
        </mxCell>
        <mxCell id="1XUGT96_4kWBRoZJdjzS-61" value="" style="edgeStyle=orthogonalEdgeStyle;rounded=0;orthogonalLoop=1;jettySize=auto;html=1;fontSize=14;strokeWidth=2;" edge="1" parent="1" source="1XUGT96_4kWBRoZJdjzS-58" target="1XUGT96_4kWBRoZJdjzS-60">
          <mxGeometry relative="1" as="geometry" />
        </mxCell>
        <mxCell id="1XUGT96_4kWBRoZJdjzS-72" value="" style="edgeStyle=orthogonalEdgeStyle;rounded=0;orthogonalLoop=1;jettySize=auto;html=1;fontSize=14;strokeWidth=2;" edge="1" parent="1" source="1XUGT96_4kWBRoZJdjzS-58" target="1XUGT96_4kWBRoZJdjzS-71">
          <mxGeometry relative="1" as="geometry">
            <Array as="points">
              <mxPoint x="645" y="-40" />
              <mxPoint x="780" y="-40" />
              <mxPoint x="780" y="230" />
              <mxPoint x="630" y="230" />
            </Array>
          </mxGeometry>
        </mxCell>
        <mxCell id="1XUGT96_4kWBRoZJdjzS-58" value="CONTADOR&amp;lt;21" style="rhombus;whiteSpace=wrap;html=1;fontSize=14;strokeWidth=2;" vertex="1" parent="1">
          <mxGeometry x="575" y="-440" width="140" height="130" as="geometry" />
        </mxCell>
        <mxCell id="1XUGT96_4kWBRoZJdjzS-63" value="" style="edgeStyle=orthogonalEdgeStyle;rounded=0;orthogonalLoop=1;jettySize=auto;html=1;fontSize=14;strokeWidth=2;" edge="1" parent="1" source="1XUGT96_4kWBRoZJdjzS-60" target="1XUGT96_4kWBRoZJdjzS-62">
          <mxGeometry relative="1" as="geometry" />
        </mxCell>
        <mxCell id="1XUGT96_4kWBRoZJdjzS-60" value="ROJO=HIGH" style="shape=parallelogram;perimeter=parallelogramPerimeter;whiteSpace=wrap;html=1;fixedSize=1;fontSize=14;strokeWidth=2;" vertex="1" parent="1">
          <mxGeometry x="585" y="-240" width="120" height="60" as="geometry" />
        </mxCell>
        <mxCell id="1XUGT96_4kWBRoZJdjzS-66" value="" style="edgeStyle=orthogonalEdgeStyle;rounded=0;orthogonalLoop=1;jettySize=auto;html=1;fontSize=14;strokeWidth=2;" edge="1" parent="1" source="1XUGT96_4kWBRoZJdjzS-62" target="1XUGT96_4kWBRoZJdjzS-64">
          <mxGeometry relative="1" as="geometry" />
        </mxCell>
        <mxCell id="1XUGT96_4kWBRoZJdjzS-62" value="T_PASO=125&lt;br&gt;DELAY(400)" style="rounded=1;whiteSpace=wrap;html=1;fontSize=14;strokeWidth=2;" vertex="1" parent="1">
          <mxGeometry x="577.5" y="-110" width="135" height="80" as="geometry" />
        </mxCell>
        <mxCell id="1XUGT96_4kWBRoZJdjzS-67" value="" style="edgeStyle=orthogonalEdgeStyle;rounded=0;orthogonalLoop=1;jettySize=auto;html=1;fontSize=14;strokeWidth=2;" edge="1" parent="1" source="1XUGT96_4kWBRoZJdjzS-64" target="1XUGT96_4kWBRoZJdjzS-65">
          <mxGeometry relative="1" as="geometry" />
        </mxCell>
        <mxCell id="1XUGT96_4kWBRoZJdjzS-64" value="DISPLAY(CONTADOR)" style="shape=process;whiteSpace=wrap;html=1;backgroundOutline=1;fontSize=14;strokeWidth=2;" vertex="1" parent="1">
          <mxGeometry x="538.75" y="30" width="212.5" height="60" as="geometry" />
        </mxCell>
        <mxCell id="1XUGT96_4kWBRoZJdjzS-69" value="" style="edgeStyle=orthogonalEdgeStyle;rounded=0;orthogonalLoop=1;jettySize=auto;html=1;fontSize=14;strokeWidth=2;" edge="1" parent="1" source="1XUGT96_4kWBRoZJdjzS-65" target="1XUGT96_4kWBRoZJdjzS-68">
          <mxGeometry relative="1" as="geometry">
            <Array as="points">
              <mxPoint x="510" y="170" />
              <mxPoint x="510" y="-375" />
            </Array>
          </mxGeometry>
        </mxCell>
        <mxCell id="1XUGT96_4kWBRoZJdjzS-65" value="MOTOR_IZQ(T_PASO)" style="shape=process;whiteSpace=wrap;html=1;backgroundOutline=1;fontSize=14;strokeWidth=2;" vertex="1" parent="1">
          <mxGeometry x="542.5" y="140" width="205" height="60" as="geometry" />
        </mxCell>
        <mxCell id="1XUGT96_4kWBRoZJdjzS-68" value="" style="shape=waypoint;sketch=0;size=6;pointerEvents=1;points=[];fillColor=default;resizable=0;rotatable=0;perimeter=centerPerimeter;snapToPoint=1;fontSize=14;strokeWidth=2;" vertex="1" parent="1">
          <mxGeometry x="560" y="-395" width="40" height="40" as="geometry" />
        </mxCell>
        <mxCell id="1XUGT96_4kWBRoZJdjzS-76" value="" style="edgeStyle=orthogonalEdgeStyle;rounded=0;orthogonalLoop=1;jettySize=auto;html=1;fontSize=14;strokeWidth=2;" edge="1" parent="1" source="1XUGT96_4kWBRoZJdjzS-70" target="1XUGT96_4kWBRoZJdjzS-73">
          <mxGeometry relative="1" as="geometry" />
        </mxCell>
        <mxCell id="1XUGT96_4kWBRoZJdjzS-91" value="" style="edgeStyle=orthogonalEdgeStyle;rounded=0;orthogonalLoop=1;jettySize=auto;html=1;fontSize=14;strokeWidth=2;" edge="1" parent="1" source="1XUGT96_4kWBRoZJdjzS-70">
          <mxGeometry relative="1" as="geometry">
            <mxPoint x="210" y="-980" as="targetPoint" />
            <Array as="points">
              <mxPoint x="770" y="310" />
              <mxPoint x="770" y="1180" />
              <mxPoint x="10" y="1180" />
              <mxPoint x="10" y="-980" />
              <mxPoint x="207" y="-980" />
            </Array>
          </mxGeometry>
        </mxCell>
        <mxCell id="1XUGT96_4kWBRoZJdjzS-70" value="CONTADOR&amp;lt;4" style="rhombus;whiteSpace=wrap;html=1;fontSize=14;strokeWidth=2;" vertex="1" parent="1">
          <mxGeometry x="560" y="250" width="140" height="120" as="geometry" />
        </mxCell>
        <mxCell id="1XUGT96_4kWBRoZJdjzS-71" value="" style="shape=waypoint;sketch=0;size=6;pointerEvents=1;points=[];fillColor=default;resizable=0;rotatable=0;perimeter=centerPerimeter;snapToPoint=1;fontSize=14;strokeWidth=2;" vertex="1" parent="1">
          <mxGeometry x="610" y="230" width="40" height="40" as="geometry" />
        </mxCell>
        <mxCell id="1XUGT96_4kWBRoZJdjzS-78" value="" style="edgeStyle=orthogonalEdgeStyle;rounded=0;orthogonalLoop=1;jettySize=auto;html=1;fontSize=14;strokeWidth=2;" edge="1" parent="1" source="1XUGT96_4kWBRoZJdjzS-73" target="1XUGT96_4kWBRoZJdjzS-77">
          <mxGeometry relative="1" as="geometry" />
        </mxCell>
        <mxCell id="1XUGT96_4kWBRoZJdjzS-73" value="ROJO=HIGH" style="shape=parallelogram;perimeter=parallelogramPerimeter;whiteSpace=wrap;html=1;fixedSize=1;fontSize=14;strokeWidth=2;" vertex="1" parent="1">
          <mxGeometry x="555" y="420" width="150" height="70" as="geometry" />
        </mxCell>
        <mxCell id="1XUGT96_4kWBRoZJdjzS-80" value="" style="edgeStyle=orthogonalEdgeStyle;rounded=0;orthogonalLoop=1;jettySize=auto;html=1;fontSize=14;strokeWidth=2;" edge="1" parent="1" source="1XUGT96_4kWBRoZJdjzS-77" target="1XUGT96_4kWBRoZJdjzS-79">
          <mxGeometry relative="1" as="geometry" />
        </mxCell>
        <mxCell id="1XUGT96_4kWBRoZJdjzS-77" value="PARO =0" style="rounded=1;whiteSpace=wrap;html=1;fontSize=14;strokeWidth=2;" vertex="1" parent="1">
          <mxGeometry x="570" y="560" width="120" height="60" as="geometry" />
        </mxCell>
        <mxCell id="1XUGT96_4kWBRoZJdjzS-85" value="" style="edgeStyle=orthogonalEdgeStyle;rounded=0;orthogonalLoop=1;jettySize=auto;html=1;fontSize=14;strokeWidth=2;" edge="1" parent="1" source="1XUGT96_4kWBRoZJdjzS-79" target="1XUGT96_4kWBRoZJdjzS-81">
          <mxGeometry relative="1" as="geometry" />
        </mxCell>
        <mxCell id="1XUGT96_4kWBRoZJdjzS-79" value="DISPLAY(PARO)&lt;br&gt;" style="shape=process;whiteSpace=wrap;html=1;backgroundOutline=1;fontSize=14;strokeWidth=2;" vertex="1" parent="1">
          <mxGeometry x="545" y="700" width="170" height="70" as="geometry" />
        </mxCell>
        <mxCell id="1XUGT96_4kWBRoZJdjzS-87" value="" style="edgeStyle=orthogonalEdgeStyle;rounded=0;orthogonalLoop=1;jettySize=auto;html=1;fontSize=14;strokeWidth=2;" edge="1" parent="1" source="1XUGT96_4kWBRoZJdjzS-81" target="1XUGT96_4kWBRoZJdjzS-82">
          <mxGeometry relative="1" as="geometry" />
        </mxCell>
        <mxCell id="1XUGT96_4kWBRoZJdjzS-81" value="DELAY(500)" style="rounded=1;whiteSpace=wrap;html=1;fontSize=14;strokeWidth=2;" vertex="1" parent="1">
          <mxGeometry x="570" y="830" width="120" height="60" as="geometry" />
        </mxCell>
        <mxCell id="1XUGT96_4kWBRoZJdjzS-86" value="" style="edgeStyle=orthogonalEdgeStyle;rounded=0;orthogonalLoop=1;jettySize=auto;html=1;fontSize=14;strokeWidth=2;" edge="1" parent="1" source="1XUGT96_4kWBRoZJdjzS-82" target="1XUGT96_4kWBRoZJdjzS-84">
          <mxGeometry relative="1" as="geometry" />
        </mxCell>
        <mxCell id="1XUGT96_4kWBRoZJdjzS-82" value="ROJO = LOW" style="shape=parallelogram;perimeter=parallelogramPerimeter;whiteSpace=wrap;html=1;fixedSize=1;fontSize=14;strokeWidth=2;" vertex="1" parent="1">
          <mxGeometry x="570" y="940" width="120" height="60" as="geometry" />
        </mxCell>
        <mxCell id="1XUGT96_4kWBRoZJdjzS-89" value="" style="edgeStyle=orthogonalEdgeStyle;rounded=0;orthogonalLoop=1;jettySize=auto;html=1;fontSize=14;strokeWidth=2;entryX=0.38;entryY=0.53;entryDx=0;entryDy=0;entryPerimeter=0;" edge="1" parent="1" source="1XUGT96_4kWBRoZJdjzS-84" target="1XUGT96_4kWBRoZJdjzS-88">
          <mxGeometry relative="1" as="geometry">
            <mxPoint x="370" y="650" as="targetPoint" />
            <Array as="points">
              <mxPoint x="410" y="1080" />
              <mxPoint x="410" y="310" />
            </Array>
          </mxGeometry>
        </mxCell>
        <mxCell id="1XUGT96_4kWBRoZJdjzS-84" value="DELAY(500)" style="rounded=1;whiteSpace=wrap;html=1;fontSize=14;strokeWidth=2;" vertex="1" parent="1">
          <mxGeometry x="570" y="1050" width="120" height="60" as="geometry" />
        </mxCell>
        <mxCell id="1XUGT96_4kWBRoZJdjzS-88" value="" style="shape=waypoint;sketch=0;size=6;pointerEvents=1;points=[];fillColor=default;resizable=0;rotatable=0;perimeter=centerPerimeter;snapToPoint=1;fontSize=14;rounded=1;strokeWidth=2;" vertex="1" parent="1">
          <mxGeometry x="545" y="290" width="40" height="40" as="geometry" />
        </mxCell>
        <mxCell id="1XUGT96_4kWBRoZJdjzS-90" value="" style="shape=waypoint;sketch=0;size=6;pointerEvents=1;points=[];fillColor=default;resizable=0;rotatable=0;perimeter=centerPerimeter;snapToPoint=1;fontSize=14;strokeWidth=2;" vertex="1" parent="1">
          <mxGeometry x="292.75" y="1160" width="40" height="40" as="geometry" />
        </mxCell>
      </root>
    </mxGraphModel>
  </diagram>
</mxfile>
